<?xml version="1.0" standalone="no"?>
<svg xmlns="http://www.w3.org/2000/svg" viewBox="0 0 102.604 118.476" width="102.604" height="118.476"><polygon fill="none" stroke="#a9dfbf" stroke-width="3" points="101.104,30.369 101.104,88.107 51.302,116.976 1.5,88.107 1.5,30.369 51.302,1.5"></polygon><path fill="#c39bd3" fill-rule="nonzero" d="M12.10 4.82L12.10 4.82Q10.98 4.82 8.99 4.45L8.99 4.45Q6.19 6.58 3.81 6.58L3.81 6.58Q3.72 6.58 3.64 6.58L3.64 6.58Q1.93 6.55 0.97 5.67Q0 4.79 0 3.32Q0 1.85 0.97 0.92Q1.93 0 3.84 0L3.84 0Q5.10 0 7.87 0.84L7.87 0.84Q10.78 1.71 12.21 1.71L12.21 1.71Q14.56 1.71 15.32 0.03L15.32 0.03L16.41 0.78Q15.79 4.82 12.10 4.82ZM2.77 4.17L2.77 4.17Q2.77 4.87 3.98 4.87Q5.18 4.87 6.92 3.98L6.92 3.98Q4.45 3.36 3.53 3.36L3.53 3.36Q3.22 3.36 3.00 3.60Q2.77 3.84 2.77 4.17ZM10.42 6.24L10.42 6.24L9.97 9.24L14.14 9.24Q14.39 9.83 14.39 10.39Q14.39 10.95 13.86 11.33Q13.33 11.70 12.52 11.70L12.52 11.70L9.58 11.70L9.55 11.96Q13.08 13.64 13.08 16.94L13.08 16.94Q13.08 19.43 11.76 20.45Q10.44 21.48 8.65 21.48Q6.86 21.48 5.88 20.57Q4.90 19.66 4.90 18.14L4.90 18.14Q4.90 17.89 4.96 17.50L4.96 17.50L5.71 11.70L3.08 11.70Q3.25 10.11 3.36 9.24L3.36 9.24L6.05 9.24L6.36 6.78Q7.81 6.08 8.79 6.08Q9.77 6.08 10.42 6.24ZM9.52 18.93L9.52 18.93Q10.19 18.93 10.70 18.44Q11.20 17.95 11.20 16.88L11.20 16.88Q11.20 14.78 9.30 13.66L9.30 13.66Q8.85 16.77 8.83 17.54Q8.82 18.31 9.03 18.62Q9.24 18.93 9.52 18.93ZM24.11 21.48L24.11 21.48Q19.77 21.48 17.74 19.26Q15.71 17.05 15.71 13.43Q15.71 9.80 16.95 6.82Q18.20 3.84 20.66 1.92Q23.13 0 26.00 0Q28.87 0 30.51 1.39Q32.14 2.77 32.14 5.11Q32.14 7.45 30.70 8.99Q29.26 10.53 27.33 10.53Q25.40 10.53 24.33 9.67Q23.27 8.82 23.27 7.85Q23.27 6.89 24.04 6.34Q24.81 5.80 26.29 5.80L26.29 5.80Q25.93 6.16 25.93 6.76Q25.93 7.36 26.29 7.81Q26.66 8.26 27.41 8.26Q28.17 8.26 28.92 7.46Q29.68 6.66 29.68 5.35Q29.68 4.03 28.88 3.25Q28.08 2.46 26.63 2.46L26.63 2.46Q24.72 2.46 23.17 4.00Q21.62 5.54 20.80 7.92Q19.99 10.30 19.99 12.94L19.99 12.94Q19.99 15.20 20.97 16.94L20.97 16.94Q21.48 17.84 22.47 18.37Q23.46 18.90 24.81 18.90L24.81 18.90Q27.10 18.90 29.23 17.43Q31.36 15.96 32.82 13.64L32.82 13.64L33.77 15.34Q32.12 18.03 29.62 19.75Q27.13 21.48 24.11 21.48Z" transform="translate(34.418, 22.5)"></path><g fill="#c39bd3" color="#c39bd3" transform="translate(29.302 51.976) scale(0.9166667)"><svg width="48.0" height="48.0" x="0.0" y="0.0" viewBox="0 0 48 48"><g><path d="M0.531,25.464c-0.009,0.237-0.021,0.475-0.021,0.714c0,8.655,5.69,16.098,13.858,19.435V48h19.262v-2.388   c8.168-3.337,13.858-10.779,13.858-19.435c0-0.239-0.012-0.477-0.021-0.714H0.531z"></path><path d="M8.801,22.701h10.517c0.22-1.546-0.151-3.169-1.101-4.441L24,11.148l5.783,7.111c-0.949,1.272-1.32,2.896-1.101,4.441   h10.517h2.403c-0.097-0.193-0.192-0.387-0.308-0.568c-0.038-0.091-0.074-0.184-0.139-0.263l-3.122-3.838   c-0.944-1.16-2.259-1.852-3.704-1.945c-1.087-0.074-2.139,0.198-3.053,0.773l-5.961-7.331l6.395-7.863   c0.356-0.438,0.29-1.081-0.147-1.437c-0.438-0.356-1.081-0.29-1.437,0.147L24,7.911l-6.126-7.534c-0.355-0.438-1-0.504-1.437-0.147   c-0.438,0.355-0.504,0.998-0.148,1.437l6.395,7.863l-5.961,7.331c-0.916-0.575-1.968-0.848-3.053-0.773   c-1.444,0.094-2.76,0.785-3.704,1.945L6.844,21.87c-0.065,0.079-0.101,0.172-0.139,0.263c-0.116,0.182-0.212,0.375-0.308,0.568   H8.801z"></path></g></svg></g></svg>